<?xml version="1.0" standalone="no"?>
<!DOCTYPE svg PUBLIC "-//W3C//DTD SVG 20010904//EN"
 "http://www.w3.org/TR/2001/REC-SVG-20010904/DTD/svg10.dtd">
<svg version="1.0" xmlns="http://www.w3.org/2000/svg"
 width="999.000000pt" height="999.000000pt" viewBox="0 0 999.000000 999.000000"
 preserveAspectRatio="xMidYMid meet">
<metadata>
Created by potrace 1.11, written by Peter Selinger 2001-2013
</metadata>
<g transform="translate(0.000000,999.000000) scale(0.100000,-0.100000)"
fill="#000000" stroke="none">
<path d="M4630 9984 c-1058 -85 -2047 -486 -2840 -1152 -939 -788 -1543 -1856
-1735 -3067 -47 -302 -50 -344 -50 -765 0 -421 3 -463 50 -765 192 -1211 796
-2279 1735 -3067 692 -581 1525 -959 2435 -1103 302 -47 344 -50 765 -50 421
0 463 3 765 50 910 144 1743 522 2435 1103 939 788 1543 1856 1735 3067 47
302 50 344 50 765 0 422 -3 461 -51 770 -113 720 -371 1386 -767 1980 -789
1183 -2004 1964 -3399 2185 -269 43 -332 47 -708 50 -206 1 -395 1 -420 -1z
m1208 -4666 l-3 -2813 -845 0 -845 0 -3 2489 c-1 1630 1 2493 8 2501 9 11 34
21 235 97 44 16 89 34 100 38 11 4 47 18 80 30 33 12 69 26 80 30 19 8 50 19
265 100 44 17 116 44 160 60 215 81 246 92 265 100 11 4 47 18 80 30 33 12 69
26 80 30 11 4 56 22 100 38 44 17 109 42 145 56 36 14 73 25 83 26 16 0 17
-138 15 -2812z m-2148 -1004 l0 -1814 -850 0 -850 0 0 1499 0 1499 80 31 c44
17 117 45 163 62 45 17 91 35 102 39 11 4 47 18 80 30 33 12 69 26 80 30 19 8
50 19 265 100 44 17 116 44 160 60 215 81 246 92 265 100 11 4 47 18 80 30 33
12 69 26 80 30 11 4 58 22 105 40 47 18 117 44 155 60 39 15 73 25 78 23 4 -2
7 -821 7 -1819z m4300 -500 l0 -1314 -850 0 -850 0 0 999 0 999 80 31 c44 17
117 45 163 62 45 17 91 35 102 39 11 4 47 18 80 30 33 12 69 26 80 30 19 8 50
19 265 100 44 17 116 44 160 60 215 81 246 92 265 100 11 4 47 18 80 30 33 12
69 26 80 30 11 4 58 22 105 40 47 18 117 44 155 60 39 15 73 25 78 23 4 -2 7
-596 7 -1319z"/>
</g>
</svg>
